<svg id="Ebene_1" data-name="Ebene 1" xmlns="http://www.w3.org/2000/svg" viewBox="0 0 501 474.9"><defs><style>.cls-1{fill:#fff;stroke:#1d1d1b;stroke-miterlimit:10;}</style></defs><title>looping</title><path class="cls-1" d="M413.88,48H67.76A67.26,67.26,0,0,0,.5,115.21v191.1l44-44,42.1,44V154.72a20.65,20.65,0,0,1,20.65-20.65H413.88v34.45L500,88.14,413.88,13.5Z" transform="translate(0.25 -12.41)"/><path class="cls-1" d="M86.62,451.76H432.74A67.26,67.26,0,0,0,500,384.5V193.4l-44,40.19-42.1-40.19V345a20.66,20.66,0,0,1-20.65,20.65H86.62V331.19L.5,411.57l86.12,74.64Z" transform="translate(0.25 -12.41)"/></svg>